<svg version="1.1" viewBox="0.0 0.0 368.0 224.0" fill="none" stroke="none" stroke-linecap="square" stroke-miterlimit="10" xmlns:xlink="http://www.w3.org/1999/xlink" xmlns="http://www.w3.org/2000/svg"><clipPath id="p.0"><path d="m0 0l368.0 0l0 224.0l-368.0 0l0 -224.0z" clip-rule="nonzero"/></clipPath><g clip-path="url(#p.0)"><path fill="#000000" fill-opacity="0.0" d="m0 0l368.0 0l0 224.0l-368.0 0z" fill-rule="evenodd"/><path fill="#42aaf5" d="m1.1781533 150.80313l24.162027 0l0 72.491135l-24.162027 0z" fill-rule="evenodd"/><path stroke="#42aaf5" stroke-width="1.0" stroke-linejoin="round" stroke-linecap="butt" d="m1.1781533 150.80313l24.162027 0l0 72.491135l-24.162027 0z" fill-rule="evenodd"/><path fill="#42aaf5" d="m25.340181 126.63943l24.162027 0l0 24.163704l-24.162027 0z" fill-rule="evenodd"/><path stroke="#42aaf5" stroke-width="1.0" stroke-linejoin="round" stroke-linecap="butt" d="m25.340181 126.63943l24.162027 0l0 24.163704l-24.162027 0z" fill-rule="evenodd"/><path fill="#42aaf5" d="m25.340181 126.63943l-12.081014 0l0 0c-3.2040844 0 -6.2769375 1.2728119 -8.542567 3.5384445c-2.2656298 2.265625 -3.5384471 5.3384857 -3.5384471 8.542572l0 12.082687l24.162027 0z" fill-rule="evenodd"/><path stroke="#42aaf5" stroke-width="1.0" stroke-linejoin="round" stroke-linecap="butt" d="m25.340181 126.63943l-12.081014 0l0 0c-3.2040844 0 -6.2769375 1.2728119 -8.542567 3.5384445c-2.2656298 2.265625 -3.5384471 5.3384857 -3.5384471 8.542572l0 12.082687l24.162027 0z" fill-rule="evenodd"/><path fill="#42aaf5" d="m49.50221 126.63943l12.081017 0l0 0c3.2040825 0 6.2769356 1.2728119 8.542568 3.5384445c2.265625 2.265625 3.5384445 5.3384857 3.5384445 8.542572l0 12.082687l-24.16203 0z" fill-rule="evenodd"/><path stroke="#42aaf5" stroke-width="1.0" stroke-linejoin="round" stroke-linecap="butt" d="m49.50221 126.63943l12.081017 0l0 0c3.2040825 0 6.2769356 1.2728119 8.542568 3.5384445c2.265625 2.265625 3.5384445 5.3384857 3.5384445 8.542572l0 12.082687l-24.16203 0z" fill-rule="evenodd"/><path fill="#42aaf5" d="m49.50221 150.80313l24.16203 0l0 24.163712l-24.16203 0z" fill-rule="evenodd"/><path stroke="#42aaf5" stroke-width="1.0" stroke-linejoin="round" stroke-linecap="butt" d="m49.50221 150.80313l24.16203 0l0 24.163712l-24.16203 0z" fill-rule="evenodd"/><path fill="#42aaf5" d="m49.50221 199.13055l12.081017 0l0 0c3.2040825 0 6.2769356 -1.2728119 8.542568 -3.5384521c2.265625 -2.265625 3.5384445 -5.3384705 3.5384445 -8.542557l0 -12.082703l-24.16203 0z" fill-rule="evenodd"/><path stroke="#42aaf5" stroke-width="1.0" stroke-linejoin="round" stroke-linecap="butt" d="m49.50221 199.13055l12.081017 0l0 0c3.2040825 0 6.2769356 -1.2728119 8.542568 -3.5384521c2.265625 -2.265625 3.5384445 -5.3384705 3.5384445 -8.542557l0 -12.082703l-24.16203 0z" fill-rule="evenodd"/><path fill="#42aaf5" d="m25.340181 174.96684l24.162027 0l0 24.163712l-24.162027 0z" fill-rule="evenodd"/><path stroke="#42aaf5" stroke-width="1.0" stroke-linejoin="round" stroke-linecap="butt" d="m25.340181 174.96684l24.162027 0l0 24.163712l-24.162027 0z" fill-rule="evenodd"/><path fill="#f5b342" d="m1.172937 24.869064l24.162027 0l0 72.49113l-24.162027 0z" fill-rule="evenodd"/><path stroke="#f5b342" stroke-width="1.0" stroke-linejoin="round" stroke-linecap="butt" d="m1.172937 24.869064l24.162027 0l0 72.49113l-24.162027 0z" fill-rule="evenodd"/><path fill="#f5b342" d="m25.334965 0.70535326l24.16203 0l0 24.163712l-24.16203 0z" fill-rule="evenodd"/><path stroke="#f5b342" stroke-width="1.0" stroke-linejoin="round" stroke-linecap="butt" d="m25.334965 0.70535326l24.16203 0l0 24.163712l-24.16203 0z" fill-rule="evenodd"/><path fill="#f5b342" d="m25.334965 0.70535326l-12.081014 0l0 0c-3.2040844 0 -6.2769375 1.2728175 -8.542566 3.5384474c-2.2656298 2.2656293 -3.5384474 5.3384824 -3.5384474 8.542566l0 12.082697l24.162027 0z" fill-rule="evenodd"/><path stroke="#f5b342" stroke-width="1.0" stroke-linejoin="round" stroke-linecap="butt" d="m25.334965 0.70535326l-12.081014 0l0 0c-3.2040844 0 -6.2769375 1.2728175 -8.542566 3.5384474c-2.2656298 2.2656293 -3.5384474 5.3384824 -3.5384474 8.542566l0 12.082697l24.162027 0z" fill-rule="evenodd"/><path fill="#f5b342" d="m49.496994 0.70535326l12.081013 0l0 0c3.2040825 0 6.2769356 1.2728175 8.542568 3.5384474c2.2656326 2.2656293 3.5384445 5.3384824 3.5384445 8.542566l0 12.082697l-24.162025 0z" fill-rule="evenodd"/><path stroke="#f5b342" stroke-width="1.0" stroke-linejoin="round" stroke-linecap="butt" d="m49.496994 0.70535326l12.081013 0l0 0c3.2040825 0 6.2769356 1.2728175 8.542568 3.5384474c2.2656326 2.2656293 3.5384445 5.3384824 3.5384445 8.542566l0 12.082697l-24.162025 0z" fill-rule="evenodd"/><path fill="#f5b342" d="m49.496994 24.869064l24.162025 0l0 72.49113l-24.162025 0z" fill-rule="evenodd"/><path stroke="#f5b342" stroke-width="1.0" stroke-linejoin="round" stroke-linecap="butt" d="m49.496994 24.869064l24.162025 0l0 72.49113l-24.162025 0z" fill-rule="evenodd"/><path fill="#f5b342" d="m98.8942 24.869064l24.162025 0l0 72.49113l-24.162025 0z" fill-rule="evenodd"/><path stroke="#f5b342" stroke-width="1.0" stroke-linejoin="round" stroke-linecap="butt" d="m98.8942 24.869064l24.162025 0l0 72.49113l-24.162025 0z" fill-rule="evenodd"/><path fill="#f5b342" d="m123.05623 0.70535326l24.162033 0l0 24.163712l-24.162033 0z" fill-rule="evenodd"/><path stroke="#f5b342" stroke-width="1.0" stroke-linejoin="round" stroke-linecap="butt" d="m123.05623 0.70535326l24.162033 0l0 24.163712l-24.162033 0z" fill-rule="evenodd"/><path fill="#f5b342" d="m123.05623 0.70535326l-12.081009 0l0 0c-3.2040863 0 -6.2769394 1.2728175 -8.542572 3.5384474c-2.265625 2.2656293 -3.5384445 5.3384824 -3.5384445 8.542566l0 12.082697l24.162025 0z" fill-rule="evenodd"/><path stroke="#f5b342" stroke-width="1.0" stroke-linejoin="round" stroke-linecap="butt" d="m123.05623 0.70535326l-12.081009 0l0 0c-3.2040863 0 -6.2769394 1.2728175 -8.542572 3.5384474c-2.265625 2.2656293 -3.5384445 5.3384824 -3.5384445 8.542566l0 12.082697l24.162025 0z" fill-rule="evenodd"/><path fill="#f5b342" d="m147.21826 0.70535326l12.081009 0l0 0c3.2040863 0 6.276947 1.2728175 8.542572 3.5384474c2.265625 2.2656293 3.5384521 5.3384824 3.5384521 8.542566l0 12.082697l-24.162033 0z" fill-rule="evenodd"/><path stroke="#f5b342" stroke-width="1.0" stroke-linejoin="round" stroke-linecap="butt" d="m147.21826 0.70535326l12.081009 0l0 0c3.2040863 0 6.276947 1.2728175 8.542572 3.5384474c2.265625 2.2656293 3.5384521 5.3384824 3.5384521 8.542566l0 12.082697l-24.162033 0z" fill-rule="evenodd"/><path fill="#f5b342" d="m147.21826 24.869064l24.162033 0l0 72.49113l-24.162033 0z" fill-rule="evenodd"/><path stroke="#f5b342" stroke-width="1.0" stroke-linejoin="round" stroke-linecap="butt" d="m147.21826 24.869064l24.162033 0l0 72.49113l-24.162033 0z" fill-rule="evenodd"/><path fill="#f5b342" d="m123.05623 49.032772l24.162033 0l0 24.163715l-24.162033 0z" fill-rule="evenodd"/><path stroke="#f5b342" stroke-width="1.0" stroke-linejoin="round" stroke-linecap="butt" d="m123.05623 49.032772l24.162033 0l0 24.163715l-24.162033 0z" fill-rule="evenodd"/><path fill="#f5b342" d="m294.33557 24.869064l24.162048 0l0 48.327423l-24.162048 0z" fill-rule="evenodd"/><path stroke="#f5b342" stroke-width="1.0" stroke-linejoin="round" stroke-linecap="butt" d="m294.33557 24.869064l24.162048 0l0 48.327423l-24.162048 0z" fill-rule="evenodd"/><path fill="#f5b342" d="m318.49762 0.70535326l24.162018 0l0 24.163712l-24.162018 0z" fill-rule="evenodd"/><path stroke="#f5b342" stroke-width="1.0" stroke-linejoin="round" stroke-linecap="butt" d="m318.49762 0.70535326l24.162018 0l0 24.163712l-24.162018 0z" fill-rule="evenodd"/><path fill="#f5b342" d="m318.49762 0.70535326l-12.081024 0l0 0c-3.204071 0 -6.276947 1.2728175 -8.542572 3.5384474c-2.265625 2.2656293 -3.5384521 5.3384824 -3.5384521 8.542566l0 12.082697l24.162048 0z" fill-rule="evenodd"/><path stroke="#f5b342" stroke-width="1.0" stroke-linejoin="round" stroke-linecap="butt" d="m318.49762 0.70535326l-12.081024 0l0 0c-3.204071 0 -6.276947 1.2728175 -8.542572 3.5384474c-2.265625 2.2656293 -3.5384521 5.3384824 -3.5384521 8.542566l0 12.082697l24.162048 0z" fill-rule="evenodd"/><path fill="#f5b342" d="m342.65964 0.70535326l12.081024 0l0 0c3.204071 0 6.2769165 1.2728175 8.542572 3.5384474c2.265625 2.2656293 3.5384216 5.3384824 3.5384216 8.542566l0 12.082697l-24.162018 0z" fill-rule="evenodd"/><path stroke="#f5b342" stroke-width="1.0" stroke-linejoin="round" stroke-linecap="butt" d="m342.65964 0.70535326l12.081024 0l0 0c3.204071 0 6.2769165 1.2728175 8.542572 3.5384474c2.265625 2.2656293 3.5384216 5.3384824 3.5384216 8.542566l0 12.082697l-24.162018 0z" fill-rule="evenodd"/><path fill="#f5b342" d="m342.65964 24.869064l24.162018 0l0 48.327423l-24.162018 0z" fill-rule="evenodd"/><path stroke="#f5b342" stroke-width="1.0" stroke-linejoin="round" stroke-linecap="butt" d="m342.65964 24.869064l24.162018 0l0 48.327423l-24.162018 0z" fill-rule="evenodd"/><path fill="#f5b342" d="m342.65964 97.36019l-24.162018 0l0 -24.163704l24.162018 0z" fill-rule="evenodd"/><path stroke="#f5b342" stroke-width="1.0" stroke-linejoin="round" stroke-linecap="butt" d="m342.65964 97.36019l-24.162018 0l0 -24.163704l24.162018 0z" fill-rule="evenodd"/><path fill="#f5b342" d="m342.65964 97.36019l12.081024 0l0 0c3.204071 0 6.2769165 -1.2728119 8.542572 -3.5384445c2.265625 -2.2656326 3.5384216 -5.3384857 3.5384216 -8.542564l0 -12.082695l-24.162018 0z" fill-rule="evenodd"/><path stroke="#f5b342" stroke-width="1.0" stroke-linejoin="round" stroke-linecap="butt" d="m342.65964 97.36019l12.081024 0l0 0c3.204071 0 6.2769165 -1.2728119 8.542572 -3.5384445c2.265625 -2.2656326 3.5384216 -5.3384857 3.5384216 -8.542564l0 -12.082695l-24.162018 0z" fill-rule="evenodd"/><path fill="#f5b342" d="m318.49762 97.36019l-12.081024 0l0 0c-3.204071 0 -6.276947 -1.2728119 -8.542572 -3.5384445c-2.265625 -2.2656326 -3.5384521 -5.3384857 -3.5384521 -8.542564l0 -12.082695l24.162048 0z" fill-rule="evenodd"/><path stroke="#f5b342" stroke-width="1.0" stroke-linejoin="round" stroke-linecap="butt" d="m318.49762 97.36019l-12.081024 0l0 0c-3.204071 0 -6.276947 -1.2728119 -8.542572 -3.5384445c-2.265625 -2.2656326 -3.5384521 -5.3384857 -3.5384521 -8.542564l0 -12.082695l24.162048 0z" fill-rule="evenodd"/><path fill="#f5b342" d="m196.61462 24.869064l24.162033 0l0 72.49113l-24.162033 0z" fill-rule="evenodd"/><path stroke="#f5b342" stroke-width="1.0" stroke-linejoin="round" stroke-linecap="butt" d="m196.61462 24.869064l24.162033 0l0 72.49113l-24.162033 0z" fill-rule="evenodd"/><path fill="#f5b342" d="m220.77666 0.70535326l24.162018 0l0 24.163712l-24.162018 0z" fill-rule="evenodd"/><path stroke="#f5b342" stroke-width="1.0" stroke-linejoin="round" stroke-linecap="butt" d="m220.77666 0.70535326l24.162018 0l0 24.163712l-24.162018 0z" fill-rule="evenodd"/><path fill="#f5b342" d="m220.77666 0.70535326l-12.081024 0l0 0c-3.2040863 0 -6.276932 1.2728175 -8.542557 3.5384474c-2.2656403 2.2656293 -3.5384521 5.3384824 -3.5384521 8.542566l0 12.082697l24.162033 0z" fill-rule="evenodd"/><path stroke="#f5b342" stroke-width="1.0" stroke-linejoin="round" stroke-linecap="butt" d="m220.77666 0.70535326l-12.081024 0l0 0c-3.2040863 0 -6.276932 1.2728175 -8.542557 3.5384474c-2.2656403 2.2656293 -3.5384521 5.3384824 -3.5384521 8.542566l0 12.082697l24.162033 0z" fill-rule="evenodd"/><path fill="#f5b342" d="m244.93867 0.70535326l12.081009 0l0 0c3.2041016 0 6.276947 1.2728175 8.542572 3.5384474c2.265625 2.2656293 3.5384521 5.3384824 3.5384521 8.542566l0 12.082697l-24.162033 0z" fill-rule="evenodd"/><path stroke="#f5b342" stroke-width="1.0" stroke-linejoin="round" stroke-linecap="butt" d="m244.93867 0.70535326l12.081009 0l0 0c3.2041016 0 6.276947 1.2728175 8.542572 3.5384474c2.265625 2.2656293 3.5384521 5.3384824 3.5384521 8.542566l0 12.082697l-24.162033 0z" fill-rule="evenodd"/><path fill="#f5b342" d="m244.93867 24.869064l24.162033 0l0 72.49113l-24.162033 0z" fill-rule="evenodd"/><path stroke="#f5b342" stroke-width="1.0" stroke-linejoin="round" stroke-linecap="butt" d="m244.93867 24.869064l24.162033 0l0 72.49113l-24.162033 0z" fill-rule="evenodd"/><path fill="#42aaf5" d="m98.89942 199.13055l24.162025 0l0 -72.49113l-24.162025 0z" fill-rule="evenodd"/><path stroke="#42aaf5" stroke-width="1.0" stroke-linejoin="round" stroke-linecap="butt" d="m98.89942 199.13055l24.162025 0l0 -72.49113l-24.162025 0z" fill-rule="evenodd"/><path fill="#42aaf5" d="m123.06145 223.29427l24.162033 0l0 -24.163712l-24.162033 0z" fill-rule="evenodd"/><path stroke="#42aaf5" stroke-width="1.0" stroke-linejoin="round" stroke-linecap="butt" d="m123.06145 223.29427l24.162033 0l0 -24.163712l-24.162033 0z" fill-rule="evenodd"/><path fill="#42aaf5" d="m123.06145 223.29427l-12.081017 0l0 0c-3.2040787 0 -6.276932 -1.2728119 -8.542564 -3.5384521c-2.2656326 -2.265625 -3.5384445 -5.3384857 -3.5384445 -8.542557l0 -12.082703l24.162025 0z" fill-rule="evenodd"/><path stroke="#42aaf5" stroke-width="1.0" stroke-linejoin="round" stroke-linecap="butt" d="m123.06145 223.29427l-12.081017 0l0 0c-3.2040787 0 -6.276932 -1.2728119 -8.542564 -3.5384521c-2.2656326 -2.265625 -3.5384445 -5.3384857 -3.5384445 -8.542557l0 -12.082703l24.162025 0z" fill-rule="evenodd"/><path fill="#42aaf5" d="m147.22348 223.29427l12.081009 0l0 0c3.2040863 0 6.276932 -1.2728119 8.542572 -3.5384521c2.265625 -2.265625 3.538437 -5.3384857 3.538437 -8.542557l0 -12.082703l-24.162018 0z" fill-rule="evenodd"/><path stroke="#42aaf5" stroke-width="1.0" stroke-linejoin="round" stroke-linecap="butt" d="m147.22348 223.29427l12.081009 0l0 0c3.2040863 0 6.276932 -1.2728119 8.542572 -3.5384521c2.265625 -2.265625 3.538437 -5.3384857 3.538437 -8.542557l0 -12.082703l-24.162018 0z" fill-rule="evenodd"/><path fill="#42aaf5" d="m196.61984 150.80313l24.162018 0l0 72.491135l-24.162018 0z" fill-rule="evenodd"/><path stroke="#42aaf5" stroke-width="1.0" stroke-linejoin="round" stroke-linecap="butt" d="m196.61984 150.80313l24.162018 0l0 72.491135l-24.162018 0z" fill-rule="evenodd"/><path fill="#42aaf5" d="m220.78186 126.63943l24.162033 0l0 24.163704l-24.162033 0z" fill-rule="evenodd"/><path stroke="#42aaf5" stroke-width="1.0" stroke-linejoin="round" stroke-linecap="butt" d="m220.78186 126.63943l24.162033 0l0 24.163704l-24.162033 0z" fill-rule="evenodd"/><path fill="#42aaf5" d="m220.78186 126.63943l-12.081009 0l0 0c-3.2040863 0 -6.276932 1.2728119 -8.542572 3.5384445c-2.265625 2.265625 -3.538437 5.3384857 -3.538437 8.542572l0 12.082687l24.162018 0z" fill-rule="evenodd"/><path stroke="#42aaf5" stroke-width="1.0" stroke-linejoin="round" stroke-linecap="butt" d="m220.78186 126.63943l-12.081009 0l0 0c-3.2040863 0 -6.276932 1.2728119 -8.542572 3.5384445c-2.265625 2.265625 -3.538437 5.3384857 -3.538437 8.542572l0 12.082687l24.162018 0z" fill-rule="evenodd"/><path fill="#42aaf5" d="m244.9439 126.63943l12.081009 0l0 0c3.2041016 0 6.276947 1.2728119 8.542572 3.5384445c2.265625 2.265625 3.5384521 5.3384857 3.5384521 8.542572l0 12.082687l-24.162033 0z" fill-rule="evenodd"/><path stroke="#42aaf5" stroke-width="1.0" stroke-linejoin="round" stroke-linecap="butt" d="m244.9439 126.63943l12.081009 0l0 0c3.2041016 0 6.276947 1.2728119 8.542572 3.5384445c2.265625 2.265625 3.5384521 5.3384857 3.5384521 8.542572l0 12.082687l-24.162033 0z" fill-rule="evenodd"/><path fill="#42aaf5" d="m244.9439 150.80313l24.162033 0l0 72.491135l-24.162033 0z" fill-rule="evenodd"/><path stroke="#42aaf5" stroke-width="1.0" stroke-linejoin="round" stroke-linecap="butt" d="m244.9439 150.80313l24.162033 0l0 72.491135l-24.162033 0z" fill-rule="evenodd"/><path fill="#42aaf5" d="m220.78186 174.96684l24.162033 0l0 24.163712l-24.162033 0z" fill-rule="evenodd"/><path stroke="#42aaf5" stroke-width="1.0" stroke-linejoin="round" stroke-linecap="butt" d="m220.78186 174.96684l24.162033 0l0 24.163712l-24.162033 0z" fill-rule="evenodd"/><path fill="#42aaf5" d="m294.3408 126.63943l24.162048 0l0 48.327415l-24.162048 0z" fill-rule="evenodd"/><path stroke="#42aaf5" stroke-width="1.0" stroke-linejoin="round" stroke-linecap="butt" d="m294.3408 126.63943l24.162048 0l0 48.327415l-24.162048 0z" fill-rule="evenodd"/><path fill="#42aaf5" d="m342.66486 126.63943l24.162018 0l0 48.327415l-24.162018 0z" fill-rule="evenodd"/><path stroke="#42aaf5" stroke-width="1.0" stroke-linejoin="round" stroke-linecap="butt" d="m342.66486 126.63943l24.162018 0l0 48.327415l-24.162018 0z" fill-rule="evenodd"/><path fill="#42aaf5" d="m318.50284 199.13055l24.162018 0l0 24.163712l-24.162018 0z" fill-rule="evenodd"/><path stroke="#42aaf5" stroke-width="1.0" stroke-linejoin="round" stroke-linecap="butt" d="m318.50284 199.13055l24.162018 0l0 24.163712l-24.162018 0z" fill-rule="evenodd"/><path fill="#42aaf5" d="m318.50284 199.13055l24.162018 0l0 -24.163712l-24.162018 0z" fill-rule="evenodd"/><path stroke="#42aaf5" stroke-width="1.0" stroke-linejoin="round" stroke-linecap="butt" d="m318.50284 199.13055l24.162018 0l0 -24.163712l-24.162018 0z" fill-rule="evenodd"/><path fill="#42aaf5" d="m318.50284 199.13055l-12.081024 0l0 0c-3.204071 0 -6.276947 -1.2728119 -8.542572 -3.5384521c-2.265625 -2.265625 -3.5384521 -5.3384705 -3.5384521 -8.542557l0 -12.082703l24.162048 0z" fill-rule="evenodd"/><path stroke="#42aaf5" stroke-width="1.0" stroke-linejoin="round" stroke-linecap="butt" d="m318.50284 199.13055l-12.081024 0l0 0c-3.204071 0 -6.276947 -1.2728119 -8.542572 -3.5384521c-2.265625 -2.265625 -3.5384521 -5.3384705 -3.5384521 -8.542557l0 -12.082703l24.162048 0z" fill-rule="evenodd"/><path fill="#42aaf5" d="m342.66486 199.13055l12.081024 0l0 0c3.204071 0 6.2769165 -1.2728119 8.542572 -3.5384521c2.265625 -2.265625 3.5384216 -5.3384705 3.5384216 -8.542557l0 -12.082703l-24.162018 0z" fill-rule="evenodd"/><path stroke="#42aaf5" stroke-width="1.0" stroke-linejoin="round" stroke-linecap="butt" d="m342.66486 199.13055l12.081024 0l0 0c3.204071 0 6.2769165 -1.2728119 8.542572 -3.5384521c2.265625 -2.265625 3.5384216 -5.3384705 3.5384216 -8.542557l0 -12.082703l-24.162018 0z" fill-rule="evenodd"/></g></svg>