<svg version="1.1" viewBox="0.0 0.0 512.0 512.0" fill="none" stroke="none" stroke-linecap="square" stroke-miterlimit="10" xmlns:xlink="http://www.w3.org/1999/xlink" xmlns="http://www.w3.org/2000/svg"><clipPath id="p.0"><path d="m0 0l512.0 0l0 512.0l-512.0 0l0 -512.0z" clip-rule="nonzero"/></clipPath><g clip-path="url(#p.0)"><path fill="#f3f3f3" d="m0 0l512.0 0l0 512.0l-512.0 0z" fill-rule="evenodd"/><path fill="#42aaf5" d="m54.548176 298.7574l26.624134 0l0 79.87799l-26.624134 0z" fill-rule="evenodd"/><path stroke="#42aaf5" stroke-width="1.0" stroke-linejoin="round" stroke-linecap="butt" d="m54.548176 298.7574l26.624134 0l0 79.87799l-26.624134 0z" fill-rule="evenodd"/><path fill="#42aaf5" d="m81.17231 272.1314l26.624146 0l0 26.625977l-26.624146 0z" fill-rule="evenodd"/><path stroke="#42aaf5" stroke-width="1.0" stroke-linejoin="round" stroke-linecap="butt" d="m81.17231 272.1314l26.624146 0l0 26.625977l-26.624146 0z" fill-rule="evenodd"/><path fill="#42aaf5" d="m81.17231 272.1314l-13.312065 0l0 0c-3.5305786 0 -6.9165573 1.4025269 -9.413055 3.8990173c-2.496498 2.4964905 -3.8990135 5.882477 -3.8990135 9.413055l0 13.313904l26.624134 0z" fill-rule="evenodd"/><path stroke="#42aaf5" stroke-width="1.0" stroke-linejoin="round" stroke-linecap="butt" d="m81.17231 272.1314l-13.312065 0l0 0c-3.5305786 0 -6.9165573 1.4025269 -9.413055 3.8990173c-2.496498 2.4964905 -3.8990135 5.882477 -3.8990135 9.413055l0 13.313904l26.624134 0z" fill-rule="evenodd"/><path fill="#42aaf5" d="m107.796455 272.1314l13.312065 0l0 0c3.5305786 0 6.916565 1.4025269 9.413055 3.8990173c2.4964905 2.4964905 3.8990173 5.882477 3.8990173 9.413055l0 13.313904l-26.624138 0z" fill-rule="evenodd"/><path stroke="#42aaf5" stroke-width="1.0" stroke-linejoin="round" stroke-linecap="butt" d="m107.796455 272.1314l13.312065 0l0 0c3.5305786 0 6.916565 1.4025269 9.413055 3.8990173c2.4964905 2.4964905 3.8990173 5.882477 3.8990173 9.413055l0 13.313904l-26.624138 0z" fill-rule="evenodd"/><path fill="#42aaf5" d="m107.796455 298.7574l26.624138 0l0 26.626007l-26.624138 0z" fill-rule="evenodd"/><path stroke="#42aaf5" stroke-width="1.0" stroke-linejoin="round" stroke-linecap="butt" d="m107.796455 298.7574l26.624138 0l0 26.626007l-26.624138 0z" fill-rule="evenodd"/><path fill="#42aaf5" d="m107.796455 352.00937l13.312065 0l0 0c3.5305786 0 6.916565 -1.4024963 9.413055 -3.8990173c2.4964905 -2.4964905 3.8990173 -5.8824463 3.8990173 -9.413055l0 -13.313904l-26.624138 0z" fill-rule="evenodd"/><path stroke="#42aaf5" stroke-width="1.0" stroke-linejoin="round" stroke-linecap="butt" d="m107.796455 352.00937l13.312065 0l0 0c3.5305786 0 6.916565 -1.4024963 9.413055 -3.8990173c2.4964905 -2.4964905 3.8990173 -5.8824463 3.8990173 -9.413055l0 -13.313904l-26.624138 0z" fill-rule="evenodd"/><path fill="#42aaf5" d="m81.17231 325.3834l26.624146 0l0 26.625977l-26.624146 0z" fill-rule="evenodd"/><path stroke="#42aaf5" stroke-width="1.0" stroke-linejoin="round" stroke-linecap="butt" d="m81.17231 325.3834l26.624146 0l0 26.625977l-26.624146 0z" fill-rule="evenodd"/><path fill="#f5b342" d="m54.542427 159.99065l26.624138 0l0 79.877975l-26.624138 0z" fill-rule="evenodd"/><path stroke="#f5b342" stroke-width="1.0" stroke-linejoin="round" stroke-linecap="butt" d="m54.542427 159.99065l26.624138 0l0 79.877975l-26.624138 0z" fill-rule="evenodd"/><path fill="#f5b342" d="m81.166565 133.36465l26.624138 0l0 26.625992l-26.624138 0z" fill-rule="evenodd"/><path stroke="#f5b342" stroke-width="1.0" stroke-linejoin="round" stroke-linecap="butt" d="m81.166565 133.36465l26.624138 0l0 26.625992l-26.624138 0z" fill-rule="evenodd"/><path fill="#f5b342" d="m81.166565 133.36465l-13.312073 0l0 0c-3.5305786 0 -6.9165535 1.4025116 -9.413052 3.8990173c-2.496498 2.4964905 -3.8990135 5.8824615 -3.8990135 9.413055l0 13.313919l26.624138 0z" fill-rule="evenodd"/><path stroke="#f5b342" stroke-width="1.0" stroke-linejoin="round" stroke-linecap="butt" d="m81.166565 133.36465l-13.312073 0l0 0c-3.5305786 0 -6.9165535 1.4025116 -9.413052 3.8990173c-2.496498 2.4964905 -3.8990135 5.8824615 -3.8990135 9.413055l0 13.313919l26.624138 0z" fill-rule="evenodd"/><path fill="#f5b342" d="m107.7907 133.36465l13.312073 0l0 0c3.5305786 0 6.9165573 1.4025116 9.413048 3.8990173c2.4965057 2.4964905 3.8990173 5.8824615 3.8990173 9.413055l0 13.313919l-26.624138 0z" fill-rule="evenodd"/><path stroke="#f5b342" stroke-width="1.0" stroke-linejoin="round" stroke-linecap="butt" d="m107.7907 133.36465l13.312073 0l0 0c3.5305786 0 6.9165573 1.4025116 9.413048 3.8990173c2.4965057 2.4964905 3.8990173 5.8824615 3.8990173 9.413055l0 13.313919l-26.624138 0z" fill-rule="evenodd"/><path fill="#f5b342" d="m107.7907 159.99065l26.624138 0l0 79.877975l-26.624138 0z" fill-rule="evenodd"/><path stroke="#f5b342" stroke-width="1.0" stroke-linejoin="round" stroke-linecap="butt" d="m107.7907 159.99065l26.624138 0l0 79.877975l-26.624138 0z" fill-rule="evenodd"/><path fill="#f5b342" d="m162.2215 159.99065l26.62413 0l0 79.877975l-26.62413 0z" fill-rule="evenodd"/><path stroke="#f5b342" stroke-width="1.0" stroke-linejoin="round" stroke-linecap="butt" d="m162.2215 159.99065l26.62413 0l0 79.877975l-26.62413 0z" fill-rule="evenodd"/><path fill="#f5b342" d="m188.84563 133.36465l26.624146 0l0 26.625992l-26.624146 0z" fill-rule="evenodd"/><path stroke="#f5b342" stroke-width="1.0" stroke-linejoin="round" stroke-linecap="butt" d="m188.84563 133.36465l26.624146 0l0 26.625992l-26.624146 0z" fill-rule="evenodd"/><path fill="#f5b342" d="m188.84563 133.36465l-13.312073 0l0 0c-3.5305786 0 -6.9165497 1.4025116 -9.413055 3.8990173c-2.4964905 2.4964905 -3.899002 5.8824615 -3.899002 9.413055l0 13.313919l26.62413 0z" fill-rule="evenodd"/><path stroke="#f5b342" stroke-width="1.0" stroke-linejoin="round" stroke-linecap="butt" d="m188.84563 133.36465l-13.312073 0l0 0c-3.5305786 0 -6.9165497 1.4025116 -9.413055 3.8990173c-2.4964905 2.4964905 -3.899002 5.8824615 -3.899002 9.413055l0 13.313919l26.62413 0z" fill-rule="evenodd"/><path fill="#f5b342" d="m215.46977 133.36465l13.312073 0l0 0c3.5305786 0 6.9165497 1.4025116 9.41304 3.8990173c2.4965057 2.4964905 3.8990173 5.8824615 3.8990173 9.413055l0 13.313919l-26.62413 0z" fill-rule="evenodd"/><path stroke="#f5b342" stroke-width="1.0" stroke-linejoin="round" stroke-linecap="butt" d="m215.46977 133.36465l13.312073 0l0 0c3.5305786 0 6.9165497 1.4025116 9.41304 3.8990173c2.4965057 2.4964905 3.8990173 5.8824615 3.8990173 9.413055l0 13.313919l-26.62413 0z" fill-rule="evenodd"/><path fill="#f5b342" d="m215.46977 159.99065l26.62413 0l0 79.877975l-26.62413 0z" fill-rule="evenodd"/><path stroke="#f5b342" stroke-width="1.0" stroke-linejoin="round" stroke-linecap="butt" d="m215.46977 159.99065l26.62413 0l0 79.877975l-26.62413 0z" fill-rule="evenodd"/><path fill="#f5b342" d="m188.84563 186.61664l26.624146 0l0 26.625992l-26.624146 0z" fill-rule="evenodd"/><path stroke="#f5b342" stroke-width="1.0" stroke-linejoin="round" stroke-linecap="butt" d="m188.84563 186.61664l26.624146 0l0 26.625992l-26.624146 0z" fill-rule="evenodd"/><path fill="#f5b342" d="m377.57834 159.99065l26.624146 0l0 53.251984l-26.624146 0z" fill-rule="evenodd"/><path stroke="#f5b342" stroke-width="1.0" stroke-linejoin="round" stroke-linecap="butt" d="m377.57834 159.99065l26.624146 0l0 53.251984l-26.624146 0z" fill-rule="evenodd"/><path fill="#f5b342" d="m404.20248 133.36465l26.624146 0l0 26.625992l-26.624146 0z" fill-rule="evenodd"/><path stroke="#f5b342" stroke-width="1.0" stroke-linejoin="round" stroke-linecap="butt" d="m404.20248 133.36465l26.624146 0l0 26.625992l-26.624146 0z" fill-rule="evenodd"/><path fill="#f5b342" d="m404.20248 133.36465l-13.312073 0l0 0c-3.5305786 0 -6.916565 1.4025116 -9.413055 3.8990173c-2.4964905 2.4964905 -3.8990173 5.8824615 -3.8990173 9.413055l0 13.313919l26.624146 0z" fill-rule="evenodd"/><path stroke="#f5b342" stroke-width="1.0" stroke-linejoin="round" stroke-linecap="butt" d="m404.20248 133.36465l-13.312073 0l0 0c-3.5305786 0 -6.916565 1.4025116 -9.413055 3.8990173c-2.4964905 2.4964905 -3.8990173 5.8824615 -3.8990173 9.413055l0 13.313919l26.624146 0z" fill-rule="evenodd"/><path fill="#f5b342" d="m430.82663 133.36465l13.312073 0l0 0c3.5305786 0 6.916565 1.4025116 9.413055 3.8990173c2.4964905 2.4964905 3.8990173 5.8824615 3.8990173 9.413055l0 13.313919l-26.624146 0z" fill-rule="evenodd"/><path stroke="#f5b342" stroke-width="1.0" stroke-linejoin="round" stroke-linecap="butt" d="m430.82663 133.36465l13.312073 0l0 0c3.5305786 0 6.916565 1.4025116 9.413055 3.8990173c2.4964905 2.4964905 3.8990173 5.8824615 3.8990173 9.413055l0 13.313919l-26.624146 0z" fill-rule="evenodd"/><path fill="#f5b342" d="m430.82663 159.99065l26.624146 0l0 53.251984l-26.624146 0z" fill-rule="evenodd"/><path stroke="#f5b342" stroke-width="1.0" stroke-linejoin="round" stroke-linecap="butt" d="m430.82663 159.99065l26.624146 0l0 53.251984l-26.624146 0z" fill-rule="evenodd"/><path fill="#f5b342" d="m430.82663 239.86862l-26.624146 0l0 -26.625992l26.624146 0z" fill-rule="evenodd"/><path stroke="#f5b342" stroke-width="1.0" stroke-linejoin="round" stroke-linecap="butt" d="m430.82663 239.86862l-26.624146 0l0 -26.625992l26.624146 0z" fill-rule="evenodd"/><path fill="#f5b342" d="m430.82663 239.86862l13.312073 0l0 0c3.5305786 0 6.916565 -1.4025116 9.413055 -3.8990173c2.4964905 -2.4964905 3.8990173 -5.882477 3.8990173 -9.413055l0 -13.313919l-26.624146 0z" fill-rule="evenodd"/><path stroke="#f5b342" stroke-width="1.0" stroke-linejoin="round" stroke-linecap="butt" d="m430.82663 239.86862l13.312073 0l0 0c3.5305786 0 6.916565 -1.4025116 9.413055 -3.8990173c2.4964905 -2.4964905 3.8990173 -5.882477 3.8990173 -9.413055l0 -13.313919l-26.624146 0z" fill-rule="evenodd"/><path fill="#f5b342" d="m404.20248 239.86862l-13.312073 0l0 0c-3.5305786 0 -6.916565 -1.4025116 -9.413055 -3.8990173c-2.4964905 -2.4964905 -3.8990173 -5.882477 -3.8990173 -9.413055l0 -13.313919l26.624146 0z" fill-rule="evenodd"/><path stroke="#f5b342" stroke-width="1.0" stroke-linejoin="round" stroke-linecap="butt" d="m404.20248 239.86862l-13.312073 0l0 0c-3.5305786 0 -6.916565 -1.4025116 -9.413055 -3.8990173c-2.4964905 -2.4964905 -3.8990173 -5.882477 -3.8990173 -9.413055l0 -13.313919l26.624146 0z" fill-rule="evenodd"/><path fill="#f5b342" d="m269.89963 159.99065l26.624146 0l0 79.877975l-26.624146 0z" fill-rule="evenodd"/><path stroke="#f5b342" stroke-width="1.0" stroke-linejoin="round" stroke-linecap="butt" d="m269.89963 159.99065l26.624146 0l0 79.877975l-26.624146 0z" fill-rule="evenodd"/><path fill="#f5b342" d="m296.52377 133.36465l26.624115 0l0 26.625992l-26.624115 0z" fill-rule="evenodd"/><path stroke="#f5b342" stroke-width="1.0" stroke-linejoin="round" stroke-linecap="butt" d="m296.52377 133.36465l26.624115 0l0 26.625992l-26.624115 0z" fill-rule="evenodd"/><path fill="#f5b342" d="m296.52377 133.36465l-13.312073 0l0 0c-3.5305786 0 -6.916565 1.4025116 -9.413055 3.8990173c-2.496521 2.4964905 -3.8990173 5.8824615 -3.8990173 9.413055l0 13.313919l26.624146 0z" fill-rule="evenodd"/><path stroke="#f5b342" stroke-width="1.0" stroke-linejoin="round" stroke-linecap="butt" d="m296.52377 133.36465l-13.312073 0l0 0c-3.5305786 0 -6.916565 1.4025116 -9.413055 3.8990173c-2.496521 2.4964905 -3.8990173 5.8824615 -3.8990173 9.413055l0 13.313919l26.624146 0z" fill-rule="evenodd"/><path fill="#f5b342" d="m323.1479 133.36465l13.312073 0l0 0c3.5305786 0 6.916565 1.4025116 9.413055 3.8990173c2.4964905 2.4964905 3.8990173 5.8824615 3.8990173 9.413055l0 13.313919l-26.624146 0z" fill-rule="evenodd"/><path stroke="#f5b342" stroke-width="1.0" stroke-linejoin="round" stroke-linecap="butt" d="m323.1479 133.36465l13.312073 0l0 0c3.5305786 0 6.916565 1.4025116 9.413055 3.8990173c2.4964905 2.4964905 3.8990173 5.8824615 3.8990173 9.413055l0 13.313919l-26.624146 0z" fill-rule="evenodd"/><path fill="#f5b342" d="m323.1479 159.99065l26.624146 0l0 79.877975l-26.624146 0z" fill-rule="evenodd"/><path stroke="#f5b342" stroke-width="1.0" stroke-linejoin="round" stroke-linecap="butt" d="m323.1479 159.99065l26.624146 0l0 79.877975l-26.624146 0z" fill-rule="evenodd"/><path fill="#42aaf5" d="m162.22723 352.00937l26.624146 0l0 -79.87796l-26.624146 0z" fill-rule="evenodd"/><path stroke="#42aaf5" stroke-width="1.0" stroke-linejoin="round" stroke-linecap="butt" d="m162.22723 352.00937l26.624146 0l0 -79.87796l-26.624146 0z" fill-rule="evenodd"/><path fill="#42aaf5" d="m188.85138 378.63538l26.62413 0l0 -26.626007l-26.62413 0z" fill-rule="evenodd"/><path stroke="#42aaf5" stroke-width="1.0" stroke-linejoin="round" stroke-linecap="butt" d="m188.85138 378.63538l26.62413 0l0 -26.626007l-26.62413 0z" fill-rule="evenodd"/><path fill="#42aaf5" d="m188.85138 378.63538l-13.312073 0l0 0c-3.5305786 0 -6.9165497 -1.4025269 -9.413055 -3.8990173c-2.4964905 -2.4964905 -3.8990173 -5.882477 -3.8990173 -9.413055l0 -13.313934l26.624146 0z" fill-rule="evenodd"/><path stroke="#42aaf5" stroke-width="1.0" stroke-linejoin="round" stroke-linecap="butt" d="m188.85138 378.63538l-13.312073 0l0 0c-3.5305786 0 -6.9165497 -1.4025269 -9.413055 -3.8990173c-2.4964905 -2.4964905 -3.8990173 -5.882477 -3.8990173 -9.413055l0 -13.313934l26.624146 0z" fill-rule="evenodd"/><path fill="#42aaf5" d="m215.47551 378.63538l13.312073 0l0 0c3.5305786 0 6.916565 -1.4025269 9.413055 -3.8990173c2.4965057 -2.4964905 3.8990173 -5.882477 3.8990173 -9.413055l0 -13.313934l-26.624146 0z" fill-rule="evenodd"/><path stroke="#42aaf5" stroke-width="1.0" stroke-linejoin="round" stroke-linecap="butt" d="m215.47551 378.63538l13.312073 0l0 0c3.5305786 0 6.916565 -1.4025269 9.413055 -3.8990173c2.4965057 -2.4964905 3.8990173 -5.882477 3.8990173 -9.413055l0 -13.313934l-26.624146 0z" fill-rule="evenodd"/><path fill="#42aaf5" d="m269.90536 298.7574l26.624146 0l0 79.87799l-26.624146 0z" fill-rule="evenodd"/><path stroke="#42aaf5" stroke-width="1.0" stroke-linejoin="round" stroke-linecap="butt" d="m269.90536 298.7574l26.624146 0l0 79.87799l-26.624146 0z" fill-rule="evenodd"/><path fill="#42aaf5" d="m296.5295 272.1314l26.624146 0l0 26.625977l-26.624146 0z" fill-rule="evenodd"/><path stroke="#42aaf5" stroke-width="1.0" stroke-linejoin="round" stroke-linecap="butt" d="m296.5295 272.1314l26.624146 0l0 26.625977l-26.624146 0z" fill-rule="evenodd"/><path fill="#42aaf5" d="m296.5295 272.1314l-13.312073 0l0 0c-3.5305786 0 -6.916565 1.4025269 -9.413055 3.8990173c-2.4964905 2.4964905 -3.8990173 5.882477 -3.8990173 9.413055l0 13.313904l26.624146 0z" fill-rule="evenodd"/><path stroke="#42aaf5" stroke-width="1.0" stroke-linejoin="round" stroke-linecap="butt" d="m296.5295 272.1314l-13.312073 0l0 0c-3.5305786 0 -6.916565 1.4025269 -9.413055 3.8990173c-2.4964905 2.4964905 -3.8990173 5.882477 -3.8990173 9.413055l0 13.313904l26.624146 0z" fill-rule="evenodd"/><path fill="#42aaf5" d="m323.15366 272.1314l13.312073 0l0 0c3.5305786 0 6.9165344 1.4025269 9.413055 3.8990173c2.4964905 2.4964905 3.8989868 5.882477 3.8989868 9.413055l0 13.313904l-26.624115 0z" fill-rule="evenodd"/><path stroke="#42aaf5" stroke-width="1.0" stroke-linejoin="round" stroke-linecap="butt" d="m323.15366 272.1314l13.312073 0l0 0c3.5305786 0 6.9165344 1.4025269 9.413055 3.8990173c2.4964905 2.4964905 3.8989868 5.882477 3.8989868 9.413055l0 13.313904l-26.624115 0z" fill-rule="evenodd"/><path fill="#42aaf5" d="m323.15366 298.7574l26.624115 0l0 79.87799l-26.624115 0z" fill-rule="evenodd"/><path stroke="#42aaf5" stroke-width="1.0" stroke-linejoin="round" stroke-linecap="butt" d="m323.15366 298.7574l26.624115 0l0 79.87799l-26.624115 0z" fill-rule="evenodd"/><path fill="#42aaf5" d="m296.5295 325.3834l26.624146 0l0 26.625977l-26.624146 0z" fill-rule="evenodd"/><path stroke="#42aaf5" stroke-width="1.0" stroke-linejoin="round" stroke-linecap="butt" d="m296.5295 325.3834l26.624146 0l0 26.625977l-26.624146 0z" fill-rule="evenodd"/><path fill="#42aaf5" d="m377.5841 272.1314l26.624115 0l0 53.251984l-26.624115 0z" fill-rule="evenodd"/><path stroke="#42aaf5" stroke-width="1.0" stroke-linejoin="round" stroke-linecap="butt" d="m377.5841 272.1314l26.624115 0l0 53.251984l-26.624115 0z" fill-rule="evenodd"/><path fill="#42aaf5" d="m430.83237 272.1314l26.624146 0l0 53.251984l-26.624146 0z" fill-rule="evenodd"/><path stroke="#42aaf5" stroke-width="1.0" stroke-linejoin="round" stroke-linecap="butt" d="m430.83237 272.1314l26.624146 0l0 53.251984l-26.624146 0z" fill-rule="evenodd"/><path fill="#42aaf5" d="m404.20822 352.00937l26.624146 0l0 26.626007l-26.624146 0z" fill-rule="evenodd"/><path stroke="#42aaf5" stroke-width="1.0" stroke-linejoin="round" stroke-linecap="butt" d="m404.20822 352.00937l26.624146 0l0 26.626007l-26.624146 0z" fill-rule="evenodd"/><path fill="#42aaf5" d="m404.20822 352.00937l26.624146 0l0 -26.625977l-26.624146 0z" fill-rule="evenodd"/><path stroke="#42aaf5" stroke-width="1.0" stroke-linejoin="round" stroke-linecap="butt" d="m404.20822 352.00937l26.624146 0l0 -26.625977l-26.624146 0z" fill-rule="evenodd"/><path fill="#42aaf5" d="m404.20822 352.00937l-13.312042 0l0 0c-3.5306091 0 -6.916565 -1.4024963 -9.413055 -3.8990173c-2.496521 -2.4964905 -3.8990173 -5.8824463 -3.8990173 -9.413055l0 -13.313904l26.624115 0z" fill-rule="evenodd"/><path stroke="#42aaf5" stroke-width="1.0" stroke-linejoin="round" stroke-linecap="butt" d="m404.20822 352.00937l-13.312042 0l0 0c-3.5306091 0 -6.916565 -1.4024963 -9.413055 -3.8990173c-2.496521 -2.4964905 -3.8990173 -5.8824463 -3.8990173 -9.413055l0 -13.313904l26.624115 0z" fill-rule="evenodd"/><path fill="#42aaf5" d="m430.83237 352.00937l13.312073 0l0 0c3.5305786 0 6.916565 -1.4024963 9.413055 -3.8990173c2.4964905 -2.4964905 3.8990173 -5.8824463 3.8990173 -9.413055l0 -13.313904l-26.624146 0z" fill-rule="evenodd"/><path stroke="#42aaf5" stroke-width="1.0" stroke-linejoin="round" stroke-linecap="butt" d="m430.83237 352.00937l13.312073 0l0 0c3.5305786 0 6.916565 -1.4024963 9.413055 -3.8990173c2.4964905 -2.4964905 3.8990173 -5.8824463 3.8990173 -9.413055l0 -13.313904l-26.624146 0z" fill-rule="evenodd"/></g></svg>